<svg width="303" height="303" viewBox="0 0 303 303" fill="none" xmlns="http://www.w3.org/2000/svg">
<path d="M151.5 303C235.171 303 303 235.171 303 151.5C303 67.8294 235.167 0 151.5 0C67.8332 0 0 67.8294 0 151.5C0 235.171 67.8286 303 151.5 303Z" fill="url(#paint0_linear_1839_171)"/>
<path d="M243.88 142.412L201.649 100.413L201.575 100.338L201.407 100.191C201.134 99.9455 200.848 99.7148 200.552 99.4995L199.911 99.0308C199.813 98.9598 199.715 98.9077 199.612 98.8415C197.195 97.271 194.289 96.6622 191.455 97.1324C188.63 97.5942 186.075 99.1046 184.288 101.37L118.604 166.695V108.5C118.604 105.441 117.38 102.506 115.208 100.342C113.035 98.1787 110.082 96.9619 107.003 96.9619C103.925 96.9619 100.977 98.1787 98.804 100.342C96.6315 102.506 95.4075 105.441 95.4075 108.5V166.699L71.4306 142.852C69.2219 140.768 66.3052 139.627 63.2872 139.666C60.2598 139.704 57.3631 140.916 55.2233 143.046C53.0835 145.177 51.8641 148.055 51.8267 151.066C51.7948 154.089 52.9474 157 55.0317 159.162L98.8087 202.699C99.0836 202.976 99.3737 203.237 99.6777 203.481L100.584 204.172C102.172 205.192 103.977 205.812 105.849 205.98H105.896L107.027 206.037H107.2L108.139 205.995H108.368L109.26 205.862H109.391L110.367 205.621H110.423C110.774 205.516 111.12 205.393 111.456 205.251C111.935 205.054 112.401 204.823 112.848 204.56L113.114 204.409C113.554 204.143 113.969 203.845 114.367 203.523L114.483 203.419L115.179 202.766L181.775 136.489V194.509C181.775 197.567 182.999 200.503 185.171 202.666C187.344 204.83 190.296 206.047 193.371 206.047C196.436 206.05 199.381 204.836 201.575 202.666C202.648 201.604 203.501 200.335 204.085 198.935C204.668 197.534 204.969 196.029 204.971 194.509V136.309L227.472 158.731C229.658 160.852 232.592 162.031 235.643 162.012C238.694 161.993 241.619 160.777 243.773 158.632C245.926 156.487 247.15 153.58 247.169 150.541C247.176 149.032 246.888 147.536 246.321 146.141C245.754 144.746 244.92 143.478 243.866 142.412H243.88Z" fill="white"/>
<defs>
<linearGradient id="paint0_linear_1839_171" x1="20.2719" y1="75.7358" x2="282.727" y2="227.257" gradientUnits="userSpaceOnUse">
<stop offset="0.13" stop-color="#348BED"/>
<stop offset="0.31" stop-color="#2B80E8"/>
<stop offset="0.64" stop-color="#1461DB"/>
<stop offset="0.72" stop-color="#0E57D7"/>
</linearGradient>
</defs>
</svg>
