<svg width="429" height="429" viewBox="0 0 429 429" fill="none" xmlns="http://www.w3.org/2000/svg">
<rect width="429" height="429" rx="95.3333" fill="#855DCD"/>
<path d="M110.586 66.7334H318.413V362.267H287.906V226.893H287.607C284.235 189.479 252.792 160.16 214.5 160.16C176.208 160.16 144.764 189.479 141.392 226.893H141.093V362.267H110.586V66.7334Z" fill="white"/>
<path d="M55.293 108.68L67.6863 150.627H78.173V320.32C72.9079 320.32 68.6396 324.588 68.6396 329.853V341.293H66.733C61.4679 341.293 57.1996 345.562 57.1996 350.827V362.267H163.973V350.827C163.973 345.562 159.705 341.293 154.44 341.293H152.533V329.853C152.533 324.588 148.265 320.32 143 320.32H131.56V108.68H55.293Z" fill="white"/>
<path d="M289.813 320.32C284.548 320.32 280.28 324.588 280.28 329.853V341.293H278.373C273.108 341.293 268.84 345.562 268.84 350.827V362.267H375.613V350.827C375.613 345.562 371.345 341.293 366.08 341.293H364.173V329.853C364.173 324.588 359.905 320.32 354.64 320.32V150.627H365.126L377.52 108.68H301.253V320.32H289.813Z" fill="white"/>
</svg>
