<svg class="mt-1" width="19" height="13" viewBox="0 0 19 13" fill="none" xmlns="http://www.w3.org/2000/svg"><path d="M4.25935 3.07306C7.25401 0.142314 12.1093 0.142314 15.104 3.07306L15.4644 3.42578C15.6141 3.57231 15.6141 3.8099 15.4644 3.95644L14.2315 5.16302C14.1566 5.23629 14.0352 5.23629 13.9604 5.16302L13.4644 4.67764C11.3753 2.63308 7.98807 2.63308 5.89892 4.67764L5.36778 5.19744C5.29291 5.27071 5.17153 5.27071 5.09666 5.19744L3.86376 3.99086C3.71403 3.84432 3.71403 3.60674 3.86376 3.4602L4.25935 3.07306ZM17.6537 5.5684L18.751 6.64227C18.9007 6.7888 18.9007 7.02639 18.751 7.17292L13.8033 12.0151C13.6536 12.1617 13.4108 12.1617 13.2611 12.0151L9.74946 8.57847C9.71203 8.54184 9.65134 8.54184 9.61391 8.57847L6.10239 12.0151C5.95266 12.1617 5.70989 12.1617 5.56016 12.0151L0.6123 7.17286C0.462567 7.02632 0.462567 6.78874 0.6123 6.6422L1.70958 5.56834C1.85932 5.4218 2.10208 5.4218 2.25181 5.56834L5.76346 9.00503C5.80089 9.04167 5.86158 9.04167 5.89901 9.00503L9.41048 5.56834C9.56021 5.4218 9.80297 5.42179 9.95271 5.56833L13.4644 9.00503C13.5018 9.04167 13.5625 9.04167 13.5999 9.00503L17.1115 5.5684C17.2612 5.42186 17.504 5.42186 17.6537 5.5684Z" fill="#5670FF"/></svg>